# Blender 3.4.0
# www.blender.org
mtllib 3.mtl
o Gemstone_03.002
v 0.440075 -0.021772 0.272034
v 0.440075 -0.021772 0.272034
v 0.440075 -0.021772 0.272034
v 0.440075 -0.021772 0.272034
v 0.440075 -0.021772 -0.290602
v 0.440075 -0.021772 -0.290602
v 0.440075 -0.021772 -0.290602
v 0.440075 -0.021772 -0.290602
v 0.273184 -0.022865 0.437323
v 0.273184 -0.022865 0.437323
v 0.273184 -0.022865 0.437323
v 0.273184 -0.022865 0.437323
v 0.382435 0.046473 0.233849
v 0.382435 0.046473 0.233849
v 0.382435 0.046473 0.233849
v 0.382435 0.046473 0.233849
v 0.440075 -0.043098 0.272034
v 0.440075 -0.043098 0.272034
v 0.440075 -0.043098 0.272034
v 0.440075 -0.043098 0.272034
v 0.440075 -0.043098 -0.290602
v 0.440075 -0.043098 -0.290602
v 0.440075 -0.043098 -0.290602
v 0.440075 -0.043098 -0.290602
v 0.273184 -0.042008 0.437323
v 0.273184 -0.042008 0.437323
v 0.273184 -0.042008 0.437323
v 0.273184 -0.042008 0.437323
v 0.382435 -0.111345 0.233849
v 0.382435 -0.111345 0.233849
v 0.382435 -0.111345 0.233849
v 0.382435 -0.111345 0.233849
v 0.382435 -0.111345 -0.252417
v 0.382435 -0.111345 -0.252417
v 0.382435 -0.111345 -0.252417
v 0.382435 -0.111345 -0.252417
v 0.236435 -0.111345 0.378980
v 0.236435 -0.111345 0.378980
v 0.236435 -0.111345 0.378980
v 0.236435 -0.111345 0.378980
v 0.270004 -0.164013 0.163309
v 0.270004 -0.164013 0.163309
v 0.270004 -0.164013 0.163309
v 0.270004 -0.164013 -0.181877
v 0.270004 -0.164013 -0.181877
v 0.270004 -0.164013 -0.181877
v 0.166482 -0.164013 0.266996
v 0.166482 -0.164013 0.266996
v 0.166482 -0.164013 0.266996
v -0.178748 -0.164013 0.266996
v -0.178748 -0.164013 0.266996
v -0.178748 -0.164013 0.266996
v -0.282270 -0.164013 0.163309
v -0.282270 -0.164013 0.163309
v -0.282270 -0.164013 0.163309
v -0.248701 -0.111345 0.378980
v -0.248701 -0.111345 0.378980
v -0.248701 -0.111345 0.378980
v -0.248701 -0.111345 0.378980
v -0.394701 -0.111345 0.233849
v -0.394701 -0.111345 0.233849
v -0.394701 -0.111345 0.233849
v -0.394701 -0.111345 0.233849
v -0.285450 -0.042008 0.437323
v -0.285450 -0.042008 0.437323
v -0.285450 -0.042008 0.437323
v -0.285450 -0.042008 0.437323
v -0.452341 -0.043098 0.272034
v -0.452341 -0.043098 0.272034
v -0.452341 -0.043098 0.272034
v -0.452341 -0.043098 0.272034
v -0.285450 -0.022865 0.437323
v -0.285450 -0.022865 0.437323
v -0.285450 -0.022865 0.437323
v -0.285450 -0.022865 0.437323
v -0.452341 -0.021772 0.272034
v -0.452341 -0.021772 0.272034
v -0.452341 -0.021772 0.272034
v -0.452341 -0.021772 0.272034
v -0.248701 0.046473 0.378980
v -0.248701 0.046473 0.378980
v -0.248701 0.046473 0.378980
v -0.248701 0.046473 0.378980
v 0.236435 0.046473 0.378980
v 0.236435 0.046473 0.378980
v 0.236435 0.046473 0.378980
v 0.236435 0.046473 0.378980
v -0.394701 0.046473 0.233849
v -0.394701 0.046473 0.233849
v -0.394701 0.046473 0.233849
v -0.394701 0.046473 0.233849
v -0.178748 0.099143 0.266997
v -0.178748 0.099143 0.266997
v -0.178748 0.099143 0.266997
v 0.166482 0.099143 0.266997
v 0.166482 0.099143 0.266997
v 0.166482 0.099143 0.266997
v -0.282270 0.099143 0.163309
v -0.282270 0.099143 0.163309
v -0.282270 0.099143 0.163309
v -0.282270 0.099143 -0.181876
v -0.282270 0.099143 -0.181876
v -0.282270 0.099143 -0.181876
v -0.178748 0.099143 -0.285564
v -0.178748 0.099143 -0.285564
v -0.178748 0.099143 -0.285564
v -0.394701 0.046474 -0.252416
v -0.394701 0.046474 -0.252416
v -0.394701 0.046474 -0.252416
v -0.394701 0.046474 -0.252416
v -0.248701 0.046474 -0.397548
v -0.248701 0.046474 -0.397548
v -0.248701 0.046474 -0.397548
v -0.248701 0.046474 -0.397548
v -0.452341 -0.021772 -0.290602
v -0.452341 -0.021772 -0.290602
v -0.452341 -0.021772 -0.290602
v -0.452341 -0.021772 -0.290602
v -0.285450 -0.022865 -0.455891
v -0.285450 -0.022865 -0.455891
v -0.285450 -0.022865 -0.455891
v -0.285450 -0.022865 -0.455891
v -0.452341 -0.043098 -0.290602
v -0.452341 -0.043098 -0.290602
v -0.452341 -0.043098 -0.290602
v -0.452341 -0.043098 -0.290602
v -0.285450 -0.042007 -0.455891
v -0.285450 -0.042007 -0.455891
v -0.285450 -0.042007 -0.455891
v -0.285450 -0.042007 -0.455891
v -0.394701 -0.111345 -0.252417
v -0.394701 -0.111345 -0.252417
v -0.394701 -0.111345 -0.252417
v -0.394701 -0.111345 -0.252417
v -0.248701 -0.111345 -0.397548
v -0.248701 -0.111345 -0.397548
v -0.248701 -0.111345 -0.397548
v -0.248701 -0.111345 -0.397548
v -0.282270 -0.164013 -0.181877
v -0.282270 -0.164013 -0.181877
v -0.282270 -0.164013 -0.181877
v -0.178748 -0.164013 -0.285564
v -0.178748 -0.164013 -0.285564
v -0.178748 -0.164013 -0.285564
v 0.166482 -0.164013 -0.285564
v 0.166482 -0.164013 -0.285564
v 0.166482 -0.164013 -0.285564
v 0.236435 -0.111345 -0.397548
v 0.236435 -0.111345 -0.397548
v 0.236435 -0.111345 -0.397548
v 0.236435 -0.111345 -0.397548
v 0.273184 -0.042007 -0.455891
v 0.273184 -0.042007 -0.455891
v 0.273184 -0.042007 -0.455891
v 0.273184 -0.042007 -0.455891
v 0.273184 -0.022865 -0.455891
v 0.273184 -0.022865 -0.455891
v 0.273184 -0.022865 -0.455891
v 0.273184 -0.022865 -0.455891
v 0.236435 0.046474 -0.397548
v 0.236435 0.046474 -0.397548
v 0.236435 0.046474 -0.397548
v 0.236435 0.046474 -0.397548
v 0.382435 0.046474 -0.252416
v 0.382435 0.046474 -0.252416
v 0.382435 0.046474 -0.252416
v 0.382435 0.046474 -0.252416
v 0.166482 0.099143 -0.285564
v 0.166482 0.099143 -0.285564
v 0.166482 0.099143 -0.285564
v 0.270004 0.099143 -0.181876
v 0.270004 0.099143 -0.181876
v 0.270004 0.099143 -0.181876
v 0.270004 0.099143 0.163309
v 0.270004 0.099143 0.163309
v 0.270004 0.099143 0.163309
vn 1.0000 -0.0000 -0.0000
vn 0.7640 0.6452 -0.0000
vn 0.7037 -0.0000 0.7105
vn 0.5015 0.7004 0.5079
vn 0.7640 -0.6452 -0.0000
vn 0.5015 -0.7004 0.5079
vn 0.4242 -0.9056 -0.0000
vn 0.2669 -0.9259 0.2674
vn 0.2669 -0.9258 0.2678
vn 0.2669 -0.9258 0.2677
vn 0.2669 -0.9258 0.2676
vn -0.0000 -1.0000 -0.0000
vn -0.0000 -0.9049 0.4256
vn -0.2669 -0.9259 0.2674
vn -0.2669 -0.9258 0.2676
vn -0.2669 -0.9258 0.2677
vn -0.2669 -0.9258 0.2678
vn -0.0000 -0.6438 0.7652
vn -0.5015 -0.7004 0.5079
vn -0.0000 -0.0000 1.0000
vn -0.7037 -0.0000 0.7105
vn -0.0000 0.6438 0.7652
vn -0.5015 0.7004 0.5079
vn -0.0000 0.9049 0.4256
vn -0.2669 0.9259 0.2674
vn -0.2669 0.9258 0.2676
vn -0.2669 0.9258 0.2677
vn -0.0000 1.0000 -0.0000
vn -0.4242 0.9056 -0.0000
vn -0.2669 0.9259 -0.2674
vn -0.2669 0.9258 -0.2676
vn -0.2669 0.9258 -0.2677
vn -0.5015 0.7004 -0.5079
vn -0.7640 0.6452 -0.0000
vn -0.7037 -0.0000 -0.7105
vn -1.0000 -0.0000 -0.0000
vn -0.5015 -0.7004 -0.5079
vn -0.7640 -0.6452 -0.0000
vn -0.2669 -0.9259 -0.2674
vn -0.2669 -0.9258 -0.2677
vn -0.2669 -0.9258 -0.2675
vn -0.4242 -0.9056 -0.0000
vn -0.0000 -0.9049 -0.4256
vn 0.2671 -0.9258 -0.2677
vn 0.2668 -0.9259 -0.2676
vn 0.2668 -0.9258 -0.2676
vn 0.2670 -0.9258 -0.2676
vn 0.5015 -0.7004 -0.5079
vn -0.0000 -0.6438 -0.7652
vn 0.7037 -0.0000 -0.7105
vn -0.0000 -0.0000 -1.0000
vn 0.5015 0.7004 -0.5079
vn -0.0000 0.6438 -0.7652
vn 0.2671 0.9258 -0.2677
vn 0.2671 0.9258 -0.2676
vn 0.2668 0.9258 -0.2676
vn 0.2667 0.9259 -0.2676
vn -0.0000 0.9049 -0.4256
vn 0.4242 0.9056 -0.0000
vn 0.2669 0.9259 0.2674
vn 0.2669 0.9258 0.2676
vn 0.2669 0.9258 0.2677
vt 0.767121 0.624780
vt 0.767121 0.624780
vt 0.767121 0.624780
vt 0.767121 0.624780
vt 0.766339 0.772492
vt 0.766339 0.772492
vt 0.766339 0.772492
vt 0.766339 0.772492
vt 0.720354 0.577731
vt 0.720354 0.577731
vt 0.720354 0.577731
vt 0.720354 0.577731
vt 0.743486 0.639219
vt 0.743486 0.639219
vt 0.743486 0.639219
vt 0.743486 0.639219
vt 0.002623 0.665012
vt 0.773344 0.622223
vt 0.002623 0.665012
vt 0.773344 0.622223
vt 0.002582 0.813705
vt 0.772399 0.775317
vt 0.002582 0.813705
vt 0.772399 0.775317
vt 0.722934 0.572207
vt 0.049456 0.618509
vt 0.049456 0.618509
vt 0.722934 0.572207
vt 0.025595 0.678851
vt 0.025595 0.678851
vt 0.025595 0.678851
vt 0.025595 0.678851
vt 0.026231 0.799787
vt 0.026231 0.799787
vt 0.026231 0.799787
vt 0.026231 0.799787
vt 0.062400 0.641277
vt 0.062400 0.641277
vt 0.062400 0.641277
vt 0.062400 0.641277
vt 0.056417 0.696898
vt 0.056417 0.696898
vt 0.056417 0.696898
vt 0.056702 0.781165
vt 0.056702 0.781165
vt 0.056702 0.781165
vt 0.081283 0.671552
vt 0.081283 0.671552
vt 0.081283 0.671552
vt 0.164605 0.670802
vt 0.164605 0.670802
vt 0.164605 0.670802
vt 0.190284 0.696059
vt 0.190284 0.696059
vt 0.190284 0.696059
vt 0.183471 0.640065
vt 0.183471 0.640065
vt 0.183471 0.640065
vt 0.183471 0.640065
vt 0.221058 0.677213
vt 0.221058 0.677213
vt 0.221058 0.677213
vt 0.221058 0.677213
vt 0.570371 0.574294
vt 0.195881 0.616126
vt 0.195881 0.616126
vt 0.570371 0.574294
vt 0.244984 0.663008
vt 0.521514 0.624036
vt 0.244984 0.663008
vt 0.521514 0.624036
vt 0.572713 0.579808
vt 0.572713 0.579808
vt 0.572713 0.579808
vt 0.572713 0.579808
vt 0.527546 0.626832
vt 0.527546 0.626832
vt 0.527546 0.626832
vt 0.527546 0.626832
vt 0.585974 0.603638
vt 0.585974 0.603638
vt 0.585974 0.603638
vt 0.585974 0.603638
vt 0.706673 0.602407
vt 0.706673 0.602407
vt 0.706673 0.602407
vt 0.706673 0.602407
vt 0.550678 0.640206
vt 0.550678 0.640206
vt 0.550678 0.640206
vt 0.550678 0.640206
vt 0.605243 0.633310
vt 0.605243 0.633310
vt 0.605243 0.633310
vt 0.688162 0.632881
vt 0.688162 0.632881
vt 0.688162 0.632881
vt 0.580759 0.658306
vt 0.580759 0.658306
vt 0.580759 0.658306
vt 0.581213 0.741289
vt 0.581213 0.741289
vt 0.581213 0.741289
vt 0.605887 0.766074
vt 0.605887 0.766074
vt 0.605887 0.766074
vt 0.551029 0.759275
vt 0.551029 0.759275
vt 0.551029 0.759275
vt 0.551029 0.759275
vt 0.586938 0.795903
vt 0.586938 0.795903
vt 0.586938 0.795903
vt 0.586938 0.795903
vt 0.527665 0.773520
vt 0.527665 0.773520
vt 0.527665 0.773520
vt 0.527665 0.773520
vt 0.573913 0.819967
vt 0.573913 0.819967
vt 0.573913 0.819967
vt 0.573913 0.819967
vt 0.244984 0.813209
vt 0.521514 0.776064
vt 0.244984 0.813209
vt 0.521514 0.776064
vt 0.571340 0.825422
vt 0.197117 0.860210
vt 0.197117 0.860210
vt 0.571340 0.825422
vt 0.221744 0.799090
vt 0.221744 0.799090
vt 0.221744 0.799090
vt 0.221744 0.799090
vt 0.184511 0.836576
vt 0.184511 0.836576
vt 0.184511 0.836576
vt 0.184511 0.836576
vt 0.190608 0.780834
vt 0.190608 0.780834
vt 0.190608 0.780834
vt 0.165379 0.806265
vt 0.165379 0.806265
vt 0.165379 0.806265
vt 0.082053 0.806333
vt 0.082053 0.806333
vt 0.082053 0.806333
vt 0.063401 0.837041
vt 0.063401 0.837041
vt 0.063401 0.837041
vt 0.063401 0.837041
vt 0.723263 0.825429
vt 0.050642 0.860116
vt 0.050642 0.860116
vt 0.723263 0.825429
vt 0.720934 0.819885
vt 0.720934 0.819885
vt 0.720934 0.819885
vt 0.720934 0.819885
vt 0.707096 0.795650
vt 0.707096 0.795650
vt 0.707096 0.795650
vt 0.707096 0.795650
vt 0.743049 0.758864
vt 0.743049 0.758864
vt 0.743049 0.758864
vt 0.743049 0.758864
vt 0.688450 0.765691
vt 0.688450 0.765691
vt 0.688450 0.765691
vt 0.712958 0.740970
vt 0.712958 0.740970
vt 0.712958 0.740970
vt 0.713152 0.657742
vt 0.713152 0.657742
vt 0.713152 0.657742
s 0
usemtl V_03.001
f 24/24/1 8/8/1 4/4/1
f 24/24/1 4/4/1 20/20/1
f 3/3/2 7/7/2 167/167/2
f 3/3/2 167/167/2 16/16/2
f 18/18/3 2/2/3 12/12/3
f 18/18/3 12/12/3 28/28/3
s 1
f 11/11/4 1/1/4 15/15/4
f 11/11/4 15/15/4 87/87/4
s 0
f 19/19/5 32/32/5 36/36/5
f 19/19/5 36/36/5 23/23/5
s 1
f 27/27/6 40/40/6 31/31/6
f 27/27/6 31/31/6 17/17/6
s 0
f 34/34/7 30/30/7 43/43/7
f 34/34/7 43/43/7 46/46/7
s 1
f 29/29/8 39/39/9 49/49/10
f 29/29/8 49/49/10 42/42/11
s 0
f 41/41/12 48/48/12 51/51/12
f 51/51/12 53/53/12 139/139/12
f 139/139/12 143/143/12 146/146/12
f 146/146/12 44/44/12 41/41/12
f 41/41/12 51/51/12 139/139/12
f 139/139/12 146/146/12 41/41/12
f 38/38/13 57/57/13 50/50/13
f 38/38/13 50/50/13 47/47/13
s 1
f 60/60/14 54/54/15 52/52/16
f 60/60/14 52/52/16 58/58/17
s 0
f 65/65/18 56/56/18 37/37/18
f 65/65/18 37/37/18 26/26/18
s 1
f 68/68/19 62/62/19 59/59/19
f 68/68/19 59/59/19 66/66/19
s 0
f 25/25/20 9/9/20 72/72/20
f 25/25/20 72/72/20 64/64/20
f 67/67/21 75/75/21 77/77/21
f 67/67/21 77/77/21 69/69/21
f 73/73/22 10/10/22 84/84/22
f 73/73/22 84/84/22 80/80/22
s 1
f 76/76/23 74/74/23 83/83/23
f 76/76/23 83/83/23 90/90/23
s 0
f 85/85/24 95/95/24 92/92/24
f 85/85/24 92/92/24 81/81/24
s 1
f 88/88/25 82/82/26 94/94/27
f 88/88/25 94/94/27 99/99/26
s 0
f 93/93/28 96/96/28 174/174/28
f 174/174/28 171/171/28 169/169/28
f 169/169/28 105/105/28 101/101/28
f 101/101/28 98/98/28 93/93/28
f 93/93/28 174/174/28 169/169/28
f 169/169/28 101/101/28 93/93/28
f 89/89/29 100/100/29 103/103/29
f 89/89/29 103/103/29 108/108/29
s 1
f 107/107/30 102/102/31 106/106/32
f 107/107/30 106/106/32 113/113/31
f 121/121/33 115/115/33 109/109/33
f 121/121/33 109/109/33 114/114/33
s 0
f 117/117/34 78/78/34 91/91/34
f 117/117/34 91/91/34 110/110/34
f 124/124/35 116/116/35 122/122/35
f 124/124/35 122/122/35 130/130/35
f 71/71/36 79/79/36 118/118/36
f 71/71/36 118/118/36 126/126/36
s 1
f 129/129/37 138/138/37 133/133/37
f 129/129/37 133/133/37 123/123/37
s 0
f 125/125/38 134/134/38 63/63/38
f 125/125/38 63/63/38 70/70/38
s 1
f 131/131/39 137/137/40 144/144/40
f 131/131/39 144/144/40 140/140/41
s 0
f 61/61/42 132/132/42 141/141/42
f 61/61/42 141/141/42 55/55/42
f 136/136/43 149/149/43 145/145/43
f 136/136/43 145/145/43 142/142/43
s 1
f 150/150/44 33/33/45 45/45/46
f 150/150/44 45/45/46 147/147/47
f 21/21/48 35/35/48 151/151/48
f 21/21/48 151/151/48 154/154/48
s 0
f 153/153/49 148/148/49 135/135/49
f 153/153/49 135/135/49 128/128/49
f 155/155/50 159/159/50 6/6/50
f 155/155/50 6/6/50 22/22/50
f 127/127/51 119/119/51 156/156/51
f 127/127/51 156/156/51 152/152/51
s 1
f 5/5/52 158/158/52 163/163/52
f 5/5/52 163/163/52 166/166/52
s 0
f 157/157/53 120/120/53 111/111/53
f 157/157/53 111/111/53 160/160/53
s 1
f 162/162/54 170/170/55 172/172/56
f 162/162/54 172/172/56 164/164/57
s 0
f 112/112/58 104/104/58 168/168/58
f 112/112/58 168/168/58 161/161/58
f 165/165/59 173/173/59 176/176/59
f 165/165/59 176/176/59 14/14/59
s 1
f 13/13/60 175/175/61 97/97/62
f 13/13/60 97/97/62 86/86/61
