# Blender 3.4.0
# www.blender.org
mtllib 5.mtl
o Gemstone_04.003
v -0.536318 -0.054415 -0.258495
v -0.536318 -0.054415 -0.258495
v -0.536318 -0.054415 -0.258495
v -0.536318 -0.054415 -0.258495
v -0.536317 -0.054415 0.260359
v -0.536317 -0.054415 0.260359
v -0.536317 -0.054415 0.260359
v -0.536317 -0.054415 0.260359
v -0.382413 -0.055421 -0.410922
v -0.382413 -0.055421 -0.410922
v -0.382413 -0.055421 -0.410922
v -0.382413 -0.055421 -0.410922
v -0.483162 0.008520 -0.223281
v -0.483162 0.008520 -0.223281
v -0.483162 0.008520 -0.223281
v -0.483162 0.008520 -0.223281
v -0.536318 -0.092741 -0.258495
v -0.536318 -0.092741 -0.258495
v -0.536318 -0.092741 -0.258495
v -0.536318 -0.092741 -0.258495
v -0.536317 -0.092741 0.260359
v -0.536317 -0.092741 0.260359
v -0.536317 -0.092741 0.260359
v -0.536317 -0.092741 0.260359
v -0.382413 -0.091735 -0.410922
v -0.382413 -0.091735 -0.410922
v -0.382413 -0.091735 -0.410922
v -0.382413 -0.091735 -0.410922
v -0.483162 -0.155677 -0.223281
v -0.483162 -0.155677 -0.223281
v -0.483162 -0.155677 -0.223281
v -0.483162 -0.155677 -0.223281
v -0.483162 -0.155677 0.225145
v -0.483162 -0.155677 0.225145
v -0.483162 -0.155677 0.225145
v -0.483162 -0.155677 0.225145
v -0.348524 -0.155677 -0.357119
v -0.348524 -0.155677 -0.357119
v -0.348524 -0.155677 -0.357119
v -0.348524 -0.155677 -0.357119
v -0.379480 -0.204247 -0.158230
v -0.379480 -0.204247 -0.158230
v -0.379480 -0.204247 -0.158230
v -0.379480 -0.204247 0.160095
v -0.379480 -0.204247 0.160095
v -0.379480 -0.204247 0.160095
v -0.284014 -0.204247 -0.253849
v -0.284014 -0.204247 -0.253849
v -0.284014 -0.204247 -0.253849
v 0.341324 -0.204247 -0.253849
v 0.341324 -0.204247 -0.253849
v 0.341324 -0.204247 -0.253849
v 0.436791 -0.204247 -0.158231
v 0.436791 -0.204247 -0.158231
v 0.436791 -0.204247 -0.158231
v 0.405834 -0.155677 -0.357119
v 0.405834 -0.155677 -0.357119
v 0.405834 -0.155677 -0.357119
v 0.405834 -0.155677 -0.357119
v 0.540473 -0.155676 -0.223281
v 0.540473 -0.155676 -0.223281
v 0.540473 -0.155676 -0.223281
v 0.540473 -0.155676 -0.223281
v 0.439723 -0.091735 -0.410923
v 0.439723 -0.091735 -0.410923
v 0.439723 -0.091735 -0.410923
v 0.439723 -0.091735 -0.410923
v 0.593628 -0.092741 -0.258495
v 0.593628 -0.092741 -0.258495
v 0.593628 -0.092741 -0.258495
v 0.593628 -0.092741 -0.258495
v 0.439723 -0.055421 -0.410923
v 0.439723 -0.055421 -0.410923
v 0.439723 -0.055421 -0.410923
v 0.439723 -0.055421 -0.410923
v 0.593628 -0.054415 -0.258495
v 0.593628 -0.054415 -0.258495
v 0.593628 -0.054415 -0.258495
v 0.593628 -0.054415 -0.258495
v 0.405834 0.008520 -0.357119
v 0.405834 0.008520 -0.357119
v 0.405834 0.008520 -0.357119
v 0.405834 0.008520 -0.357119
v -0.348524 0.008520 -0.357119
v -0.348524 0.008520 -0.357119
v -0.348524 0.008520 -0.357119
v -0.348524 0.008520 -0.357119
v 0.540473 0.008520 -0.223281
v 0.540473 0.008520 -0.223281
v 0.540473 0.008520 -0.223281
v 0.540473 0.008520 -0.223281
v 0.341324 0.057091 -0.253849
v 0.341324 0.057091 -0.253849
v 0.341324 0.057091 -0.253849
v -0.284014 0.057091 -0.253849
v -0.284014 0.057091 -0.253849
v -0.284014 0.057091 -0.253849
v 0.436791 0.057091 -0.158231
v 0.436791 0.057091 -0.158231
v 0.436791 0.057091 -0.158231
v 0.436791 0.057091 0.160094
v 0.436791 0.057091 0.160094
v 0.436791 0.057091 0.160094
v 0.341325 0.057091 0.255713
v 0.341325 0.057091 0.255713
v 0.341325 0.057091 0.255713
v 0.540473 0.008520 0.225145
v 0.540473 0.008520 0.225145
v 0.540473 0.008520 0.225145
v 0.540473 0.008520 0.225145
v 0.405835 0.008520 0.358983
v 0.405835 0.008520 0.358983
v 0.405835 0.008520 0.358983
v 0.405835 0.008520 0.358983
v 0.593628 -0.054415 0.260359
v 0.593628 -0.054415 0.260359
v 0.593628 -0.054415 0.260359
v 0.593628 -0.054415 0.260359
v 0.439723 -0.055421 0.412786
v 0.439723 -0.055421 0.412786
v 0.439723 -0.055421 0.412786
v 0.439723 -0.055421 0.412786
v 0.593628 -0.092741 0.260359
v 0.593628 -0.092741 0.260359
v 0.593628 -0.092741 0.260359
v 0.593628 -0.092741 0.260359
v 0.439723 -0.091735 0.412786
v 0.439723 -0.091735 0.412786
v 0.439723 -0.091735 0.412786
v 0.439723 -0.091735 0.412786
v 0.540473 -0.155676 0.225145
v 0.540473 -0.155676 0.225145
v 0.540473 -0.155676 0.225145
v 0.540473 -0.155676 0.225145
v 0.405835 -0.155677 0.358983
v 0.405835 -0.155677 0.358983
v 0.405835 -0.155677 0.358983
v 0.405835 -0.155677 0.358983
v 0.436791 -0.204247 0.160094
v 0.436791 -0.204247 0.160094
v 0.436791 -0.204247 0.160094
v 0.341325 -0.204247 0.255713
v 0.341325 -0.204247 0.255713
v 0.341325 -0.204247 0.255713
v -0.284014 -0.204247 0.255713
v -0.284014 -0.204247 0.255713
v -0.284014 -0.204247 0.255713
v -0.348524 -0.155677 0.358983
v -0.348524 -0.155677 0.358983
v -0.348524 -0.155677 0.358983
v -0.348524 -0.155677 0.358983
v -0.382412 -0.091735 0.412786
v -0.382412 -0.091735 0.412786
v -0.382412 -0.091735 0.412786
v -0.382412 -0.091735 0.412786
v -0.382412 -0.055421 0.412786
v -0.382412 -0.055421 0.412786
v -0.382412 -0.055421 0.412786
v -0.382412 -0.055421 0.412786
v -0.348524 0.008520 0.358983
v -0.348524 0.008520 0.358983
v -0.348524 0.008520 0.358983
v -0.348524 0.008520 0.358983
v -0.483162 0.008520 0.225145
v -0.483162 0.008520 0.225145
v -0.483162 0.008520 0.225145
v -0.483162 0.008520 0.225145
v -0.284014 0.057091 0.255713
v -0.284014 0.057091 0.255713
v -0.284014 0.057091 0.255713
v -0.379480 0.057091 0.160095
v -0.379480 0.057091 0.160095
v -0.379480 0.057091 0.160095
v -0.379480 0.057091 -0.158230
v -0.379480 0.057091 -0.158230
v -0.379480 0.057091 -0.158230
vn -1.0000 -0.0000 -0.0000
vn -0.7640 0.6453 -0.0000
vn -0.5015 0.7004 -0.5079
vn -0.7037 -0.0000 -0.7105
vn -0.7640 -0.6453 -0.0000
vn -0.7640 -0.6452 -0.0000
vn -0.5015 -0.7004 -0.5079
vn -0.4242 -0.9056 -0.0000
vn -0.2671 -0.9258 -0.2676
vn -0.2670 -0.9258 -0.2676
vn -0.2668 -0.9259 -0.2676
vn -0.0000 -1.0000 -0.0000
vn -0.0000 -0.9049 -0.4256
vn 0.2669 -0.9259 -0.2674
vn 0.2669 -0.9258 -0.2676
vn 0.2669 -0.9258 -0.2677
vn 0.2669 -0.9257 -0.2679
vn -0.0000 -0.6438 -0.7652
vn 0.5015 -0.7004 -0.5079
vn -0.0000 -0.0000 -1.0000
vn 0.7037 -0.0000 -0.7105
vn -0.0000 0.6438 -0.7652
vn 0.5015 0.7004 -0.5079
vn -0.0000 0.9049 -0.4256
vn 0.2669 0.9259 -0.2674
vn 0.2669 0.9258 -0.2677
vn 0.2669 0.9258 -0.2675
vn -0.0000 1.0000 -0.0000
vn 0.4242 0.9056 -0.0000
vn 0.2669 0.9259 0.2674
vn 0.2669 0.9259 0.2675
vn 0.2669 0.9258 0.2677
vn 0.5015 0.7004 0.5079
vn 0.7640 0.6453 -0.0000
vn 0.7037 -0.0000 0.7105
vn 1.0000 -0.0000 -0.0000
vn 0.5015 -0.7004 0.5079
vn 0.7640 -0.6453 -0.0000
vn 0.2671 -0.9258 0.2676
vn 0.2669 -0.9258 0.2676
vn 0.2668 -0.9258 0.2676
vn 0.4242 -0.9056 -0.0000
vn -0.0000 -0.9049 0.4256
vn -0.2669 -0.9259 0.2674
vn -0.2669 -0.9258 0.2676
vn -0.2669 -0.9258 0.2677
vn -0.5015 -0.7004 0.5079
vn -0.0000 -0.6438 0.7652
vn -0.7037 -0.0000 0.7105
vn -0.0000 -0.0000 1.0000
vn -0.5015 0.7004 0.5079
vn -0.0000 0.6438 0.7652
vn -0.2671 0.9258 0.2677
vn -0.2669 0.9258 0.2676
vn -0.2668 0.9258 0.2676
vn -0.2666 0.9259 0.2676
vn -0.0000 0.9049 0.4256
vn -0.4242 0.9056 -0.0000
vn -0.2669 0.9259 -0.2674
vn -0.2669 0.9258 -0.2675
vn -0.2669 0.9258 -0.2677
vn -0.2669 0.9258 -0.2678
vt 0.056796 0.014026
vt 0.056796 0.014026
vt 0.056796 0.014026
vt 0.056796 0.014026
vt 0.194367 0.013801
vt 0.194367 0.013801
vt 0.194367 0.013801
vt 0.194367 0.013801
vt 0.013106 0.057424
vt 0.013106 0.057424
vt 0.013106 0.057424
vt 0.013106 0.057424
vt 0.070306 0.035956
vt 0.070306 0.035956
vt 0.070306 0.035956
vt 0.070306 0.035956
vt 0.298054 0.307178
vt 0.052007 0.002582
vt 0.298054 0.307178
vt 0.052007 0.002582
vt 0.437828 0.307175
vt 0.199736 0.002582
vt 0.437828 0.307175
vt 0.199736 0.002582
vt 0.002582 0.052200
vt 0.254486 0.262129
vt 0.254486 0.262129
vt 0.002582 0.052200
vt 0.311098 0.284968
vt 0.311098 0.284968
vt 0.311098 0.284968
vt 0.311098 0.284968
vt 0.424816 0.285580
vt 0.424816 0.285580
vt 0.424816 0.285580
vt 0.424816 0.285580
vt 0.276030 0.250133
vt 0.276030 0.250133
vt 0.276030 0.250133
vt 0.276030 0.250133
vt 0.328586 0.256308
vt 0.328586 0.256308
vt 0.328586 0.256308
vt 0.407807 0.256575
vt 0.407807 0.256575
vt 0.407807 0.256575
vt 0.304904 0.232343
vt 0.304904 0.232343
vt 0.304904 0.232343
vt 0.305240 0.077540
vt 0.305240 0.077540
vt 0.305240 0.077540
vt 0.329044 0.053613
vt 0.329044 0.053613
vt 0.329044 0.053613
vt 0.276499 0.059452
vt 0.276499 0.059452
vt 0.276499 0.059452
vt 0.276499 0.059452
vt 0.311858 0.024403
vt 0.311858 0.024403
vt 0.311858 0.024403
vt 0.311858 0.024403
vt 0.005634 0.276390
vt 0.254486 0.047476
vt 0.254486 0.047476
vt 0.005634 0.276390
vt 0.298613 0.002601
vt 0.054447 0.324333
vt 0.298613 0.002601
vt 0.054447 0.324333
vt 0.016091 0.271767
vt 0.016091 0.271767
vt 0.016091 0.271767
vt 0.016091 0.271767
vt 0.059742 0.313266
vt 0.059742 0.313266
vt 0.059742 0.313266
vt 0.059742 0.313266
vt 0.038001 0.259174
vt 0.038001 0.259174
vt 0.038001 0.259174
vt 0.038001 0.259174
vt 0.035998 0.070167
vt 0.035998 0.070167
vt 0.035998 0.070167
vt 0.035998 0.070167
vt 0.072080 0.291881
vt 0.072080 0.291881
vt 0.072080 0.291881
vt 0.072080 0.291881
vt 0.065867 0.241152
vt 0.065867 0.241152
vt 0.065867 0.241152
vt 0.064395 0.087521
vt 0.064395 0.087521
vt 0.064395 0.087521
vt 0.088879 0.264069
vt 0.088879 0.264069
vt 0.088879 0.264069
vt 0.165619 0.263641
vt 0.165619 0.263641
vt 0.165619 0.263641
vt 0.188307 0.240543
vt 0.188307 0.240543
vt 0.188307 0.240543
vt 0.182341 0.291487
vt 0.182341 0.291487
vt 0.182341 0.291487
vt 0.182341 0.291487
vt 0.216385 0.257930
vt 0.216385 0.257930
vt 0.216385 0.257930
vt 0.216385 0.257930
vt 0.195591 0.313099
vt 0.195591 0.313099
vt 0.195591 0.313099
vt 0.195591 0.313099
vt 0.238606 0.270282
vt 0.238606 0.270282
vt 0.238606 0.270282
vt 0.238606 0.270282
vt 0.439541 0.002582
vt 0.200308 0.324392
vt 0.439541 0.002582
vt 0.200308 0.324392
vt 0.249018 0.275485
vt 0.483510 0.048450
vt 0.483510 0.048450
vt 0.249018 0.275485
vt 0.426262 0.025014
vt 0.426262 0.025014
vt 0.426262 0.025014
vt 0.426262 0.025014
vt 0.461281 0.060311
vt 0.461281 0.060311
vt 0.461281 0.060311
vt 0.461281 0.060311
vt 0.408597 0.053860
vt 0.408597 0.053860
vt 0.408597 0.053860
vt 0.432320 0.077986
vt 0.432320 0.077986
vt 0.432320 0.077986
vt 0.431555 0.232789
vt 0.431555 0.232789
vt 0.431555 0.232789
vt 0.460208 0.250994
vt 0.460208 0.250994
vt 0.460208 0.250994
vt 0.460208 0.250994
vt 0.249322 0.051213
vt 0.481539 0.263104
vt 0.481539 0.263104
vt 0.249322 0.051213
vt 0.238742 0.055842
vt 0.238742 0.055842
vt 0.238742 0.055842
vt 0.238742 0.055842
vt 0.216171 0.068846
vt 0.216171 0.068846
vt 0.216171 0.068846
vt 0.216171 0.068846
vt 0.181792 0.035517
vt 0.181792 0.035517
vt 0.181792 0.035517
vt 0.181792 0.035517
vt 0.187992 0.086845
vt 0.187992 0.086845
vt 0.187992 0.086845
vt 0.164774 0.063668
vt 0.164774 0.063668
vt 0.164774 0.063668
vt 0.087264 0.064126
vt 0.087264 0.064126
vt 0.087264 0.064126
s 0
usemtl V_02.002
f 24/24/1 8/8/1 4/4/1
f 24/24/1 4/4/1 20/20/1
f 3/3/2 7/7/2 167/167/2
f 3/3/2 167/167/2 16/16/2
s 1
f 11/11/3 1/1/3 15/15/3
f 11/11/3 15/15/3 87/87/3
s 0
f 18/18/4 2/2/4 12/12/4
f 18/18/4 12/12/4 28/28/4
f 19/19/5 32/32/5 36/36/5
f 19/19/6 36/36/6 23/23/6
s 1
f 27/27/7 40/40/7 31/31/7
f 27/27/7 31/31/7 17/17/7
s 0
f 30/30/8 43/43/8 46/46/8
f 30/30/8 46/46/8 34/34/8
s 1
f 39/39/9 49/49/10 42/42/11
f 39/39/9 42/42/11 29/29/11
s 0
f 41/41/12 48/48/12 51/51/12
f 51/51/12 53/53/12 139/139/12
f 139/139/12 143/143/12 146/146/12
f 146/146/12 44/44/12 41/41/12
f 41/41/12 51/51/12 139/139/12
f 139/139/12 146/146/12 41/41/12
f 57/57/13 50/50/13 47/47/13
f 57/57/13 47/47/13 38/38/13
s 1
f 60/60/14 54/54/15 52/52/16
f 60/60/14 52/52/16 58/58/17
f 65/65/18 56/56/18 37/37/18
s 0
f 65/65/18 37/37/18 26/26/18
s 1
f 68/68/19 62/62/19 59/59/19
f 68/68/19 59/59/19 66/66/19
s 0
f 25/25/20 9/9/20 72/72/20
f 25/25/20 72/72/20 64/64/20
f 67/67/21 75/75/21 77/77/21
f 67/67/21 77/77/21 69/69/21
f 73/73/22 10/10/22 84/84/22
s 1
f 73/73/22 84/84/22 80/80/22
f 76/76/23 74/74/23 83/83/23
f 76/76/23 83/83/23 90/90/23
s 0
f 85/85/24 95/95/24 92/92/24
f 85/85/24 92/92/24 81/81/24
s 1
f 88/88/25 82/82/26 94/94/26
f 88/88/25 94/94/26 99/99/27
s 0
f 93/93/28 96/96/28 174/174/28
f 174/174/28 171/171/28 169/169/28
f 169/169/28 105/105/28 101/101/28
f 101/101/28 98/98/28 93/93/28
f 93/93/28 174/174/28 169/169/28
f 169/169/28 101/101/28 93/93/28
f 89/89/29 100/100/29 103/103/29
f 89/89/29 103/103/29 108/108/29
s 1
f 107/107/30 102/102/31 106/106/32
f 107/107/30 106/106/32 113/113/32
f 121/121/33 115/115/33 109/109/33
f 121/121/33 109/109/33 114/114/33
s 0
f 117/117/34 78/78/34 91/91/34
f 117/117/34 91/91/34 110/110/34
f 124/124/35 116/116/35 122/122/35
f 124/124/35 122/122/35 130/130/35
f 71/71/36 79/79/36 118/118/36
f 71/71/36 118/118/36 126/126/36
s 1
f 129/129/37 138/138/37 133/133/37
f 129/129/37 133/133/37 123/123/37
s 0
f 125/125/38 134/134/38 63/63/38
f 125/125/38 63/63/38 70/70/38
s 1
f 137/137/39 144/144/40 140/140/41
f 137/137/39 140/140/41 131/131/41
s 0
f 132/132/42 141/141/42 55/55/42
f 132/132/42 55/55/42 61/61/42
f 149/149/43 145/145/43 142/142/43
f 149/149/43 142/142/43 136/136/43
s 1
f 33/33/44 45/45/45 147/147/46
f 33/33/44 147/147/46 150/150/46
f 21/21/47 35/35/47 151/151/47
f 21/21/47 151/151/47 154/154/47
s 0
f 153/153/48 148/148/48 135/135/48
f 153/153/48 135/135/48 128/128/48
f 155/155/49 159/159/49 6/6/49
f 155/155/49 6/6/49 22/22/49
f 127/127/50 119/119/50 156/156/50
f 127/127/50 156/156/50 152/152/50
s 1
f 5/5/51 158/158/51 163/163/51
f 5/5/51 163/163/51 166/166/51
s 0
f 157/157/52 120/120/52 111/111/52
f 157/157/52 111/111/52 160/160/52
s 1
f 162/162/53 170/170/54 172/172/55
f 162/162/53 172/172/55 164/164/56
s 0
f 112/112/57 104/104/57 168/168/57
f 112/112/57 168/168/57 161/161/57
f 165/165/58 173/173/58 176/176/58
f 165/165/58 176/176/58 14/14/58
s 1
f 13/13/59 175/175/60 97/97/61
f 13/13/59 97/97/61 86/86/62
